Coordinates
version=1
nRows=4
nColumns=63
inDegrees=yes

Units are S.I. units (second, meters, Newtons, ...)
If the header above contains a line with 'inDegrees', this indicates whether rotational values are in degrees (yes) or radians (no).

endheader
time	pelvis_tilt	pelvis_list	pelvis_rotation	pelvis_tx	pelvis_ty	pelvis_tz	hip_flexion_r	hip_adduction_r	hip_rotation_r	knee_angle_r	knee_angle_r_beta	ankle_angle_r	subtalar_angle_r	mtp_angle_r	hip_flexion_l	hip_adduction_l	hip_rotation_l	knee_angle_l	knee_angle_l_beta	ankle_angle_l	subtalar_angle_l	mtp_angle_l	L5_S1_Flex_Ext	L5_S1_Lat_Bending	L5_S1_axial_rotation	L4_L5_Flex_Ext	L4_L5_Lat_Bending	L4_L5_axial_rotation	L3_L4_Flex_Ext	L3_L4_Lat_Bending	L3_L4_axial_rotation	L2_L3_Flex_Ext	L2_L3_Lat_Bending	L2_L3_axial_rotation	L1_L2_Flex_Ext	L1_L2_Lat_Bending	L1_L2_axial_rotation	L1_T12_Flex_Ext	L1_T12_Lat_Bending	L1_T12_axial_rotation	Abs_r3	Abs_r2	Abs_r1	Abs_t1	Abs_t2	neck_flexion	neck_bending	neck_rotation	arm_flex_r	arm_add_r	arm_rot_r	elbow_flex_r	pro_sup_r	wrist_flex_r	wrist_dev_r	arm_flex_l	arm_add_l	arm_rot_l	elbow_flex_l	pro_sup_l	wrist_flex_l	wrist_dev_l
      3.75000000	    -57.71976089	     -9.53934682	      2.90974404	     -0.27772958	      1.07550459	     -0.04387294	    108.54372028	     -8.12185980	     -8.59768150	     62.05364978	      1.08304050	      7.58698651	     -1.92892803	      0.00000000	    109.31105592	     -1.72229799	     10.79150153	     91.62219463	      1.59910896	      3.88926102	      2.60238813	      0.00000000	     -0.09778423	      1.61112368	     -0.64768381	     -0.18159510	      2.14279450	     -0.68816405	     -0.16064972	      3.91728612	     -0.68816405	     -0.11175760	      3.91728612	     -0.56672333	     -0.09080244	      3.28540341	     -0.52624310	     -0.05587391	      2.49563058	     -0.48576286	     -0.69846301	     18.22535332	     -3.60222305	      0.00000000	      0.00000000	     -0.00000000	      0.00000000	      0.00000000	     64.47790881	    -14.29610442	     21.31323201	     43.30850275	     26.37102022	      0.00000000	      5.00001567	     55.63618491	     -9.91593941	      2.60272782	     47.92797256	     35.50911049	      0.00000000	      5.00001567
      3.75800000	    -57.55693338	     -9.47622681	      3.26939531	     -0.27806500	      1.07388456	     -0.04366414	    106.45656593	     -8.00362596	     -8.77408327	     58.91986702	      1.02834567	      6.26381084	     -2.07337350	      0.00000000	    110.98825424	     -1.54949234	     10.69612659	     94.67068851	      1.65231522	      5.51805658	      2.54516088	      0.00000000	     -0.09470946	      1.57735150	     -0.70614184	     -0.17588494	      2.09787750	     -0.75027570	     -0.15559817	      3.83517244	     -0.75027570	     -0.10824344	      3.83517244	     -0.61787411	     -0.08794720	      3.21653518	     -0.57374024	     -0.05411699	      2.44331747	     -0.52960638	     -0.67650020	     17.84331565	     -3.92734905	      0.00000000	      0.00000000	     -0.00000000	      0.00000000	      0.00000000	     64.27135020	    -14.33113024	     21.02047260	     43.33280965	     26.31494501	      0.00000000	      5.00001546	     55.77943763	    -10.07204232	      2.82006876	     48.00266337	     35.52528734	      0.00000000	      5.00001546
      3.76700000	    -57.36818661	     -9.53136538	      3.26606592	     -0.27801945	      1.07193942	     -0.04289083	    104.36112325	     -7.61968788	     -9.45398015	     56.00598083	      0.97748877	      4.24619700	     -3.16495225	      0.00000000	    112.77917681	     -1.72729661	     10.94363720	     97.77057271	      1.70641841	      7.61443786	      3.42345533	      0.00000000	     -0.09367892	      1.55767559	     -0.69931037	     -0.17397113	      2.07170853	     -0.74301727	     -0.15390510	      3.78733242	     -0.74301727	     -0.10706564	      3.78733242	     -0.61189657	     -0.08699025	      3.17641206	     -0.56818968	     -0.05352814	      2.41283948	     -0.52448278	     -0.66913917	     17.62073777	     -3.88935449	      0.00000000	      0.00000000	     -0.00000000	      0.00000000	      0.00000000	     63.93121718	    -14.36395535	     20.46049875	     43.52679360	     26.14849502	      0.00000000	      5.00001457	     55.87611225	    -10.22265713	      3.11218534	     48.01204033	     35.52165212	      0.00000000	      5.00001457
      3.77500000	    -57.18999107	     -9.25058098	      3.31694840	     -0.27788228	      1.07001324	     -0.04209865	    102.29634389	     -7.33886923	     -9.87516461	     53.22548263	      0.92895992	      2.86180826	     -2.92863323	      0.00000000	    114.57132080	     -1.94318202	     10.62383875	    100.60970115	      1.75597054	      9.01654457	      3.22683958	      0.00000000	     -0.09239781	      1.49442533	     -0.70558518	     -0.17159197	      1.98758569	     -0.74968426	     -0.15180036	      3.63354575	     -0.74968426	     -0.10560145	      3.63354575	     -0.61738704	     -0.08580060	      3.04743214	     -0.57328796	     -0.05279611	      2.31486484	     -0.52918889	     -0.65998829	     16.90523823	     -3.92425311	      0.00000000	      0.00000000	     -0.00000000	      0.00000000	      0.00000000	     63.53385601	    -14.33228359	     20.04109192	     43.64476248	     26.06070703	      0.00000000	      5.00001424	     55.95017181	    -10.46279587	      3.43912822	     48.14832338	     35.54951913	      0.00000000	      5.00001424
